<?xml version="1.0" standalone="no"?>
<!DOCTYPE svg PUBLIC "-//W3C//DTD SVG 20010904//EN"
 "http://www.w3.org/TR/2001/REC-SVG-20010904/DTD/svg10.dtd">
<svg version="1.0" xmlns="http://www.w3.org/2000/svg"
 width="512.000000pt" height="512.000000pt" viewBox="0 0 512.000000 512.000000"
 preserveAspectRatio="xMidYMid meet">
<metadata>
Created by potrace 1.16, written by Peter Selinger 2001-2019
</metadata>
<g transform="translate(0.000000,512.000000) scale(0.059743,-0.055895)"
fill="#000000" stroke="none">
<path d="M1096 9022 c-3 -6 -8 -87 -10 -180 -5 -190 -9 -207 -113 -457 -25
-60 -58 -146 -74 -190 -51 -145 -60 -169 -98 -245 -21 -41 -41 -88 -45 -104
-4 -16 -23 -63 -43 -105 -54 -114 -94 -276 -139 -566 -27 -170 -8 -382 46
-525 18 -47 38 -108 45 -135 14 -57 37 -106 71 -152 13 -17 24 -36 24 -41 0
-19 149 -166 215 -213 39 -26 169 -98 290 -159 121 -61 261 -135 310 -164 175
-103 381 -245 440 -305 73 -73 186 -167 290 -241 43 -30 102 -75 132 -100 54
-45 54 -45 26 -48 -58 -7 -193 -52 -235 -78 -24 -15 -83 -54 -133 -87 -109
-74 -216 -121 -256 -113 -32 6 -58 -15 -37 -30 78 -55 168 -76 325 -76 115 0
140 3 190 22 118 47 235 146 284 242 l16 31 21 -21 c19 -19 85 -45 142 -57 32
-6 123 -66 195 -129 162 -140 305 -354 305 -455 0 -71 -27 -180 -60 -246 -32
-66 -99 -154 -116 -155 -6 0 -33 23 -59 51 -78 83 -203 128 -302 107 -25 -6
-98 -8 -163 -7 -103 4 -121 7 -142 25 -24 21 -58 22 -58 0 0 -6 46 -60 103
-119 78 -81 117 -114 167 -139 86 -43 173 -49 245 -18 27 12 52 24 55 28 3 4
20 20 38 36 l32 30 25 -24 c30 -28 24 -42 -42 -103 -48 -43 -146 -147 -204
-213 -28 -32 -108 -96 -179 -145 -63 -43 -266 -149 -286 -149 -4 0 -56 -20
-114 -44 -223 -93 -287 -118 -335 -131 -116 -31 -349 -149 -480 -245 -67 -48
-221 -203 -270 -271 -106 -149 -135 -191 -135 -197 0 -4 -9 -24 -20 -45 -11
-20 -33 -79 -50 -130 -26 -82 -30 -113 -37 -270 -7 -163 -4 -324 11 -532 16
-216 6 -502 -20 -589 -8 -27 -14 -69 -14 -92 0 -24 -5 -55 -11 -71 -6 -15 -12
-39 -14 -53 -5 -40 -67 -180 -76 -174 -5 3 -9 -4 -9 -15 0 -11 -5 -23 -10 -26
-6 -3 -10 -11 -10 -16 0 -6 5 -7 10 -4 6 3 10 2 10 -3 0 -20 77 9 100 39 8 10
84 33 99 30 7 -1 10 2 7 8 -3 5 20 19 51 31 32 12 63 26 69 31 7 5 16 9 20 8
5 -2 27 3 48 9 22 6 44 8 49 5 6 -3 7 -1 4 4 -7 11 71 53 97 53 8 0 18 5 21
11 4 5 12 8 18 6 6 -2 57 21 115 50 57 29 108 50 114 47 7 -5 8 -2 3 6 -6 10
-4 12 8 7 10 -3 17 -3 17 1 0 12 96 62 120 62 13 0 19 4 14 11 -4 7 -1 10 7 7
13 -4 85 36 184 101 22 15 50 26 62 25 12 -1 21 2 18 6 -2 4 15 17 38 30 51
29 84 52 158 108 39 29 62 40 75 36 16 -5 16 -4 4 5 -13 9 -12 12 8 17 12 4
22 10 22 14 0 4 18 15 40 25 22 10 40 21 40 24 0 10 152 126 162 123 4 -1 7 1
6 5 -2 5 35 46 80 93 106 107 131 145 196 283 39 82 64 157 94 279 l42 167
-12 113 c-6 62 -12 137 -14 166 -1 29 -7 65 -12 80 -6 15 -16 47 -23 72 -6 25
-18 59 -27 75 -48 88 -135 370 -154 495 -7 45 -6 93 2 158 12 99 15 105 73
195 20 31 37 60 37 64 0 4 100 122 143 168 17 18 -3 -45 -35 -114 -59 -125
-79 -200 -72 -261 18 -152 94 -300 190 -371 30 -22 54 -47 54 -55 0 -9 7 -14
17 -12 11 2 20 21 29 58 6 30 21 97 33 148 12 52 22 132 23 181 1 79 -2 95
-29 152 -16 35 -49 86 -72 112 -52 60 -81 117 -81 157 0 16 -5 30 -11 30 -7 0
2 15 19 32 167 178 230 277 268 423 24 94 24 200 -1 242 -18 31 -18 33 -1 51
19 22 116 62 149 62 11 0 46 -7 78 -16 81 -23 119 -62 159 -165 37 -96 47
-199 35 -344 l-7 -88 -125 6 c-106 6 -127 10 -141 26 -9 11 -36 22 -58 26 -37
6 -45 3 -68 -22 -14 -15 -26 -36 -26 -46 0 -31 19 -57 42 -57 l21 0 -7 -347
c-3 -192 -8 -375 -11 -408 -2 -33 -7 -143 -10 -245 -3 -102 -10 -331 -15 -510
-5 -179 -12 -401 -15 -495 -2 -93 -7 -262 -10 -375 -3 -113 -8 -239 -10 -280
-3 -41 -7 -196 -10 -345 -8 -370 -13 -455 -25 -471 -14 -16 -40 -7 -41 15 -1
9 -5 3 -9 -14 l-8 -30 -1 33 c-1 21 -6 32 -16 32 -8 0 -14 -3 -14 -8 3 -20 -2
-25 -12 -12 -8 12 -9 10 -4 -8 4 -14 1 -28 -9 -37 -13 -13 -15 -13 -21 5 -8
24 -25 27 -25 4 0 -12 -7 -14 -27 -10 -16 3 -35 0 -45 -7 -19 -15 -20 -67 0
-60 6 3 12 0 12 -6 0 -6 6 -10 13 -9 7 2 11 -6 9 -19 -2 -16 1 -21 11 -17 18
6 32 -25 17 -40 -13 -13 -13 -26 1 -26 5 0 7 5 4 10 -3 6 -2 10 3 10 14 0 33
-26 25 -33 -3 -4 1 -7 11 -7 9 0 19 -7 22 -15 4 -8 11 -12 17 -8 6 4 8 0 4
-10 -5 -14 -3 -15 13 -4 11 6 20 15 20 19 0 17 17 7 30 -16 7 -14 22 -26 34
-28 12 -2 21 -9 20 -15 -1 -7 -2 -26 -2 -41 -2 -24 -8 -29 -47 -40 -106 -28
-44 -32 491 -32 295 0 534 3 530 7 -3 3 -1 12 5 19 6 8 9 21 5 29 -4 11 1 15
19 15 22 0 25 4 25 34 0 19 4 37 9 40 5 3 8 -2 7 -12 -2 -26 40 -28 54 -3 11
21 60 30 60 12 0 -15 60 -25 73 -12 32 32 71 -10 44 -49 l-14 -20 -25 20 c-20
15 -27 17 -31 7 -3 -9 -16 -12 -36 -9 -42 6 -50 22 -12 22 17 0 31 5 31 10 0
6 -18 10 -40 10 -36 0 -40 -2 -40 -25 0 -14 -5 -25 -10 -25 -7 0 -7 -6 0 -19
14 -26 13 -38 -2 -23 -16 16 -43 15 -58 -2 -6 -8 -21 -17 -33 -19 -12 -2 5 -5
38 -5 38 -1 67 4 79 13 19 14 19 15 1 35 -18 20 -18 20 26 20 34 0 41 -3 29
-11 -13 -9 -13 -10 1 -6 9 3 22 0 29 -6 10 -9 14 -9 17 0 7 18 33 16 33 -2 0
-9 7 -18 15 -21 8 -4 12 -10 9 -15 -3 -5 18 -9 46 -9 32 0 49 4 45 10 -3 6
-18 10 -32 10 -21 0 -24 2 -13 15 17 21 27 19 54 -10 23 -25 56 -34 56 -15 0
6 8 10 18 10 31 1 50 24 45 53 -6 30 -23 37 -23 10 -1 -21 -23 -53 -36 -53
-11 1 -54 36 -54 44 0 3 7 6 15 6 8 0 15 -4 15 -10 0 -5 8 -10 18 -10 20 0 47
53 38 75 -3 9 0 15 9 15 9 0 15 -10 15 -26 0 -17 6 -28 20 -31 25 -7 26 -23 3
-23 -14 -1 -12 -6 11 -26 16 -14 35 -23 43 -19 11 3 13 1 10 -10 -5 -12 9 -14
93 -13 l100 1 0 28 c0 32 -16 39 -23 12 -4 -15 -5 -15 -6 2 0 11 8 31 19 45
l20 25 19 -24 c20 -26 41 -21 41 10 0 12 7 19 20 19 11 0 20 5 20 10 0 6 9 10
20 10 11 0 20 -3 20 -7 0 -16 -16 -28 -35 -28 -23 0 -45 -38 -45 -79 l0 -30
28 27 c16 15 31 24 35 21 10 -10 37 23 37 45 0 24 15 28 24 6 8 -22 25 -18 19
5 -3 11 0 20 6 20 6 0 11 -5 11 -11 0 -6 6 -9 13 -6 6 2 11 11 9 21 -4 20 6
21 28 1 13 -12 25 -13 56 -6 l39 9 -32 1 c-18 1 -33 5 -33 9 0 10 57 9 66 -1
3 -3 3 -15 -1 -27 -6 -20 -12 -22 -53 -16 -38 5 -49 3 -69 -16 -15 -14 -34
-21 -52 -20 -27 2 -40 -15 -41 -50 0 -12 28 -9 32 3 5 16 69 18 75 2 8 -20 23
-16 23 6 0 11 10 22 23 26 20 6 20 8 3 12 -10 3 -23 0 -29 -6 -14 -14 -27 -14
-27 -1 0 12 77 33 96 26 17 -7 18 -43 2 -49 -7 -2 -10 -8 -6 -12 12 -13 38 4
38 25 0 11 5 20 12 20 6 0 4 8 -6 19 -20 22 -4 40 19 21 18 -15 19 -6 5 21 -8
15 -7 19 4 19 8 0 17 -8 19 -17 4 -16 5 -16 6 1 1 14 6 17 23 13 12 -3 30 -2
40 4 12 6 18 6 18 -1 0 -5 -3 -10 -7 -10 -5 0 -13 -11 -19 -24 -9 -19 -8 -25
5 -33 18 -11 47 10 36 27 -7 12 12 50 26 50 5 0 9 -8 7 -17 -2 -12 4 -19 17
-21 13 -2 26 -15 32 -33 7 -17 16 -28 22 -25 6 4 5 17 -2 35 -12 33 -4 61 18
61 8 0 14 -3 14 -7 -3 -20 2 -23 17 -8 10 10 23 13 33 9 9 -4 26 -6 39 -5 23
1 30 -13 12 -24 -13 -8 -13 -25 -1 -25 6 0 18 13 28 30 21 36 33 38 33 8 0
-14 3 -19 8 -11 9 15 56 33 86 33 19 0 22 -4 18 -25 -3 -17 1 -27 12 -31 21
-8 28 -2 30 31 1 24 4 26 30 21 16 -3 39 -6 53 -6 36 0 40 -27 8 -60 -17 -18
-23 -30 -16 -35 6 -3 15 4 20 17 6 13 10 21 11 18 7 -25 7 -40 -1 -40 -5 0 -9
-8 -9 -17 0 -13 -3 -14 -12 -5 -16 16 -68 16 -68 -1 0 -9 28 -12 113 -12 110
0 112 0 109 23 -2 12 2 22 7 22 16 0 13 23 -4 46 -12 16 -16 17 -24 4 -6 -8
-13 -11 -17 -7 -16 15 23 36 76 41 30 4 49 3 43 0 -22 -10 -14 -24 12 -24 18
0 25 5 25 20 0 13 5 18 15 14 8 -4 12 -10 9 -15 -3 -5 4 -9 15 -9 12 0 21 5
21 10 0 18 72 11 86 -7 12 -17 14 -17 28 2 16 22 14 23 30 -29 3 -8 13 -13 23
-11 10 2 22 4 26 4 5 1 5 6 2 12 -4 6 -13 8 -21 5 -8 -3 -14 1 -14 10 0 10 6
14 15 10 8 -3 27 -1 41 5 20 7 31 6 43 -4 10 -9 26 -11 41 -7 17 4 29 1 38 -9
11 -15 13 -14 25 0 13 17 48 11 62 -10 10 -17 55 -13 55 4 0 8 6 15 13 16 6 0
33 2 60 4 38 3 51 0 67 -17 19 -21 19 -23 2 -41 -16 -19 -16 -20 6 -15 19 5
22 2 22 -23 0 -16 5 -29 10 -29 13 0 13 57 0 65 -5 3 -10 17 -10 31 0 20 5 24
32 24 17 0 28 -3 24 -7 -4 -5 -11 -8 -14 -8 -17 -1 -31 -17 -25 -31 5 -13 8
-13 24 2 11 9 19 12 19 6 0 -6 -4 -14 -10 -17 -13 -8 -13 -65 -1 -65 5 0 12 6
14 13 4 8 6 8 6 0 1 -16 313 -18 342 -2 15 8 24 8 32 0 13 -13 31 -15 23 -3
-2 4 -1 14 5 22 7 12 9 10 9 -7 l0 -23 479 0 479 0 1 193 c0 126 -3 187 -9
177 -5 -8 -10 -10 -10 -5 0 6 5 16 11 22 5 5 9 30 7 54 -3 42 -4 44 -32 41
-18 -3 -26 0 -22 7 4 6 15 11 26 11 21 0 30 20 29 63 0 28 -2 29 -10 12 -8
-17 -9 -16 -3 5 10 43 10 210 0 200 -15 -15 -30 -12 -17 3 6 8 8 17 4 20 -3 4
2 9 11 13 9 3 16 14 16 23 0 13 -2 13 -9 2 -6 -10 -10 -10 -16 -1 -4 6 -14 9
-22 6 -8 -3 -24 4 -36 15 l-22 21 28 -13 c38 -17 77 4 76 40 0 18 -3 21 -7 11
-8 -18 -28 -23 -59 -15 -22 5 -33 35 -13 35 6 0 10 -4 10 -10 0 -5 9 -10 20
-10 22 0 26 10 9 27 -8 8 -20 9 -36 2 -21 -8 -24 -7 -19 7 5 12 2 15 -10 10
-9 -4 -23 -1 -31 5 -17 15 -26 7 -26 -25 0 -18 -4 -23 -16 -18 -14 5 -14 4 -2
-11 9 -12 10 -17 2 -17 -7 0 -9 -5 -6 -10 4 -6 -3 -27 -14 -46 -12 -19 -21
-41 -21 -48 0 -8 -7 -19 -15 -26 -8 -7 -15 -23 -15 -36 0 -19 -5 -24 -26 -24
-14 0 -23 -4 -19 -9 3 -5 0 -13 -6 -17 -7 -4 -22 4 -36 21 -19 21 -27 25 -36
16 -7 -7 -12 -17 -12 -23 0 -6 -8 -12 -17 -14 -10 -1 -18 2 -18 7 0 5 4 9 9 9
15 0 24 41 12 53 -8 8 -11 7 -11 -2 0 -11 -3 -11 -17 0 -16 13 -17 12 -4 -3
12 -16 10 -20 -9 -36 l-22 -18 27 -39 c14 -22 31 -42 37 -46 6 -4 5 -14 -4
-28 -11 -19 -11 -24 5 -35 9 -7 17 -17 17 -21 0 -4 -8 -1 -17 6 -15 13 -16 11
-10 -20 6 -27 4 -32 -9 -27 -8 3 -24 1 -34 -4 -13 -7 -21 -7 -25 0 -3 6 5 14
18 19 28 11 44 41 22 41 -12 0 -13 4 -4 19 7 11 9 26 4 37 -4 11 -9 24 -9 29
-1 6 -9 22 -20 37 -12 19 -17 39 -14 60 4 21 0 38 -10 48 -14 13 -15 13 -9 -2
3 -9 2 -31 -3 -48 -6 -21 -5 -38 6 -58 7 -15 14 -35 14 -44 0 -10 7 -18 15
-18 8 0 15 -9 15 -20 0 -11 -6 -20 -14 -20 -8 0 -16 -6 -19 -12 -2 -7 -2 -3 0
10 9 54 -37 119 -54 77 -5 -14 -8 -14 -24 1 -20 18 -27 6 -8 -13 8 -8 8 -13 0
-17 -6 -4 -11 -2 -11 3 0 6 -7 11 -15 11 -19 0 -19 1 1 -46 11 -26 19 -34 22
-24 5 16 34 41 40 35 2 -2 -4 -15 -13 -29 -10 -14 -15 -33 -11 -41 3 -9 -3
-20 -14 -27 -24 -15 -25 -24 -4 -32 8 -3 12 -2 9 3 -3 5 5 11 17 13 13 2 22 9
20 16 -1 6 5 12 14 12 10 0 12 -5 7 -12 -4 -7 -6 -23 -5 -34 2 -16 -6 -26 -29
-38 -41 -21 -46 -20 -52 4 -5 21 -31 27 -42 10 -4 -6 5 -24 20 -42 16 -19 23
-34 17 -40 -11 -11 -52 11 -52 27 0 5 -13 10 -29 10 -26 0 -28 -2 -19 -19 14
-25 -16 -52 -37 -33 -7 7 -9 14 -4 15 14 5 11 22 -7 39 -13 14 -17 14 -24 2
-7 -11 -12 -11 -22 -1 -6 6 -20 12 -30 12 -10 0 -18 5 -18 10 0 6 5 10 11 10
6 0 19 10 29 22 10 13 22 19 27 14 4 -5 2 -11 -5 -13 -14 -5 -16 -43 -2 -43 6
0 10 9 10 19 0 11 6 21 13 24 9 3 9 8 1 16 -13 14 -67 4 -58 -10 6 -11 -34
-11 -61 1 -21 8 -21 8 50 23 11 3 1 5 -22 6 -23 0 -43 6 -45 13 -7 19 -26 0
-33 -32 -4 -17 -13 -30 -21 -30 -16 0 -18 14 -4 39 7 14 5 23 -9 35 -19 17
-19 16 -15 -24 3 -35 1 -40 -10 -31 -11 9 -15 6 -22 -16 -4 -16 -8 -34 -9 -42
0 -15 -45 -36 -45 -22 0 5 -14 7 -30 5 -37 -4 -39 11 -3 28 15 7 32 23 39 35
6 13 14 20 18 16 4 -4 4 1 0 10 -6 17 -8 16 -21 -3 -8 -11 -22 -20 -32 -20
-16 0 -18 7 -16 47 2 29 9 50 19 55 9 5 16 19 16 31 -1 20 -2 21 -14 4 -12
-16 -36 -24 -36 -12 0 4 7 19 15 35 14 27 14 29 -1 23 -14 -5 -15 -2 -8 18 12
33 6 122 -9 131 -9 5 -9 10 1 20 6 6 12 29 12 50 0 24 5 38 13 38 8 0 7 3 -3
10 -13 8 -15 141 -14 1102 1 1387 9 1866 29 1888 20 22 19 42 -5 73 -23 29
-21 62 10 182 19 69 32 173 51 395 16 192 -4 686 -31 760 -5 14 -18 77 -30
140 -12 63 -27 124 -34 135 -6 11 -18 40 -25 65 -31 108 -57 173 -117 298 -35
73 -64 137 -64 142 0 4 -4 10 -9 12 -5 2 -37 44 -70 93 -34 50 -81 116 -103
148 -53 75 -244 267 -328 332 -36 28 -66 53 -68 58 -2 4 -9 7 -15 7 -7 1 -25
11 -40 24 l-29 23 67 6 c56 5 75 12 118 44 61 45 77 62 121 128 52 80 73 149
72 235 -1 64 -6 86 -34 143 -19 37 -57 92 -85 121 -43 45 -64 57 -121 75 -77
24 -121 26 -198 10 -78 -16 -212 -85 -241 -122 -29 -39 -77 -150 -84 -194 -5
-29 9 -139 23 -186 5 -15 -2 -14 -53 9 -69 30 -145 54 -268 84 -49 12 -98 24
-107 26 -10 3 -18 1 -18 -4 0 -5 17 -13 38 -16 110 -20 325 -89 388 -126 71
-41 105 -69 69 -56 -89 33 -266 43 -374 21 -135 -26 -374 -85 -386 -94 -5 -5
-57 -25 -115 -46 -130 -45 -376 -166 -427 -209 -21 -18 -56 -43 -78 -56 -22
-13 -56 -37 -75 -52 -19 -15 -60 -46 -90 -68 -103 -75 -408 -390 -486 -501
-23 -32 -57 -78 -76 -101 -19 -24 -37 -51 -41 -60 -4 -11 -17 -18 -32 -18 -14
0 -25 -5 -25 -10 0 -7 -6 -7 -17 -1 -10 6 -83 45 -163 89 -80 43 -184 100
-232 125 -48 26 -103 57 -122 69 -42 27 -52 65 -26 93 10 11 26 36 37 56 36
68 68 106 273 314 86 87 286 247 350 280 19 9 44 26 56 36 11 11 50 35 85 54
35 19 60 35 54 35 -35 0 -310 -173 -449 -284 -139 -111 -312 -301 -409 -451
-22 -34 -39 -49 -52 -48 -10 1 -32 -8 -47 -18 -48 -34 -31 -79 28 -79 18 0 36
5 40 11 4 7 9 7 13 2 3 -5 74 -46 156 -90 355 -191 379 -205 383 -228 8 -40
34 -57 79 -52 33 3 52 -2 95 -25 29 -16 91 -50 138 -75 47 -25 96 -53 110 -62
14 -9 60 -34 102 -56 58 -30 80 -47 87 -67 9 -24 15 -28 48 -28 26 0 69 -15
133 -48 84 -43 258 -139 269 -148 8 -7 -43 -131 -72 -174 -88 -132 -345 -308
-547 -376 -81 -28 -221 -26 -275 4 -55 30 -68 42 -89 82 -10 19 -28 56 -42 82
-75 148 -189 238 -303 238 -77 0 -118 -13 -175 -57 -58 -45 -102 -124 -119
-214 -12 -61 -13 -62 -62 -85 -29 -14 -60 -39 -74 -59 -13 -19 -27 -35 -31
-35 -5 0 -28 31 -53 68 -25 37 -62 83 -83 101 -22 18 -62 52 -89 76 -28 23
-61 52 -75 64 -25 21 -25 21 -5 39 67 60 113 161 127 282 14 123 6 169 -59
343 -30 80 -48 146 -52 191 -7 78 -26 99 -36 39 -22 -140 -55 -261 -95 -346
-16 -34 -34 -91 -39 -127 -13 -80 -14 -254 -2 -297 l9 -32 -46 23 c-26 13 -80
40 -121 60 -41 20 -93 50 -115 65 -145 99 -204 142 -216 156 -7 8 -17 15 -22
15 -5 0 -36 21 -69 48 -33 26 -77 60 -97 75 -93 71 -126 119 -116 164 10 49
75 236 94 273 103 203 135 272 175 375 83 213 95 247 106 314 6 36 19 109 30
161 32 164 41 273 35 428 -7 194 -19 249 -99 447 -44 110 -58 135 -99 180 -15
17 -28 35 -28 40 -1 23 -292 293 -382 353 -41 27 -96 74 -124 104 -27 30 -85
82 -129 117 -157 124 -337 313 -393 413 -60 107 -87 168 -92 207 -5 42 -21 63
-34 43z m169 -357 c79 -99 208 -230 300 -305 46 -38 117 -102 157 -143 40 -40
107 -95 148 -122 72 -48 292 -250 355 -326 66 -80 114 -177 172 -347 l47 -137
4 -180 c2 -127 -1 -208 -11 -275 -32 -201 -68 -386 -82 -415 -21 -45 -61 -145
-75 -190 -7 -22 -19 -49 -25 -60 -7 -11 -20 -43 -29 -71 -9 -28 -28 -66 -41
-84 -14 -19 -25 -39 -25 -44 0 -6 -7 -24 -16 -41 -45 -82 -82 -165 -94 -210
-7 -27 -16 -54 -20 -60 -4 -5 -11 -25 -15 -42 -3 -18 -10 -35 -14 -38 -5 -2
-28 12 -52 33 -26 22 -40 30 -36 20 3 -10 3 -18 -2 -18 -5 0 -69 40 -142 88
-74 49 -161 104 -194 122 -33 18 -64 36 -70 40 -5 5 -114 60 -242 124 -153 77
-240 126 -257 146 -13 17 -32 30 -41 30 -25 0 -150 132 -206 217 -41 64 -89
182 -89 222 0 6 -4 19 -9 29 -45 81 -71 237 -70 417 1 98 3 120 44 335 31 166
60 267 104 362 17 37 34 80 37 95 4 15 20 53 35 83 34 68 119 275 119 290 0
10 24 68 85 205 52 117 88 237 96 325 5 52 9 109 8 125 0 17 -1 34 0 38 1 4
22 -33 48 -83 26 -50 70 -120 98 -155z m5495 -1205 c81 -68 109 -100 137 -158
22 -48 25 -63 21 -137 -4 -74 -9 -94 -46 -169 -82 -164 -213 -231 -352 -178
-26 10 -49 27 -55 40 -7 16 -18 22 -41 22 -25 0 -44 12 -91 58 -70 67 -96 111
-95 164 1 21 -3 38 -9 38 -15 0 -10 94 6 117 9 12 22 41 30 63 22 64 53 100
104 122 158 71 151 69 247 65 l90 -3 54 -44z m-580 -515 c71 -15 181 -62 187
-80 2 -6 -36 -21 -84 -34 -100 -28 -371 -161 -496 -245 -83 -55 -112 -78 -255
-196 -77 -64 -342 -331 -398 -400 -16 -19 -59 -68 -96 -108 -99 -105 -277
-333 -307 -393 -10 -19 -28 -32 -60 -43 l-46 -15 -115 63 c-63 35 -120 65
-125 67 -6 2 -59 31 -118 63 -86 48 -106 63 -102 77 4 10 -1 29 -10 42 -15 24
-14 26 28 78 24 30 55 72 69 94 50 80 365 409 473 495 115 92 349 251 415 282
197 94 414 176 565 212 77 18 158 38 180 44 62 15 216 14 295 -3z m240 -122
c-1 -5 -9 -22 -18 -39 -9 -17 -26 -49 -38 -70 -23 -44 -72 -125 -119 -199 -17
-27 -58 -96 -91 -153 -32 -57 -73 -124 -90 -150 -17 -27 -41 -66 -53 -89 -11
-23 -34 -62 -51 -86 -16 -25 -30 -48 -30 -51 0 -3 -19 -36 -43 -73 -24 -38
-46 -75 -50 -83 -4 -8 -27 -46 -52 -85 -24 -38 -60 -99 -81 -135 -20 -36 -47
-78 -59 -95 -12 -16 -43 -66 -69 -110 -102 -170 -147 -228 -163 -211 -2 2 4
21 15 43 31 60 62 163 62 204 0 25 -8 47 -24 66 l-24 27 -33 -25 c-57 -43 -56
-43 -47 29 16 122 -6 247 -46 261 -29 11 -44 4 -61 -30 -18 -33 -71 -246 -85
-339 -13 -84 -60 -231 -76 -237 -13 -5 -244 113 -256 131 -5 7 -8 7 -8 1 0 -5
-7 -2 -14 8 -8 10 -17 18 -20 17 -4 -1 -19 4 -34 11 -51 22 -32 101 50 206 18
24 60 78 93 120 33 43 83 103 111 133 29 30 78 86 110 125 90 107 319 338 414
418 47 40 87 75 90 78 16 18 148 114 216 156 176 110 340 188 459 218 57 15
115 19 115 8z m67 -98 c41 -106 74 -328 73 -505 0 -85 -4 -180 -9 -210 -6 -30
-17 -93 -26 -140 -9 -47 -27 -152 -41 -235 -39 -239 -64 -342 -118 -470 -22
-54 -53 -92 -64 -80 -2 2 5 16 15 32 24 34 85 218 108 327 19 86 16 175 -4
200 -8 9 -28 16 -46 16 -43 0 -89 -52 -149 -169 -24 -47 -57 -111 -73 -141
-16 -30 -35 -71 -43 -90 -7 -19 -19 -42 -25 -50 -7 -8 -20 -35 -29 -60 -48
-123 -118 -264 -184 -368 -11 -17 -13 -16 -219 96 l-173 94 14 31 c7 18 23 50
35 72 35 66 27 135 -16 135 -20 0 -24 4 -19 17 7 17 131 220 213 345 23 37 43
70 43 73 0 3 22 41 49 83 27 42 108 178 182 302 73 124 184 311 247 415 64
105 127 210 142 235 57 99 66 110 79 108 8 -2 25 -30 38 -63z m266 -119 c80
-63 229 -231 304 -341 23 -33 49 -69 60 -80 10 -11 29 -40 42 -65 14 -25 27
-47 30 -50 23 -20 165 -318 181 -383 7 -23 22 -72 36 -110 13 -37 24 -70 24
-75 0 -4 5 -23 10 -42 45 -157 70 -340 76 -553 8 -280 -16 -559 -67 -782 -25
-105 -31 -120 -56 -120 -10 0 -18 -7 -17 -15 2 -34 -50 -17 -192 60 -81 44
-150 80 -154 80 -21 0 -75 51 -76 71 -1 13 -7 38 -14 54 -10 26 -9 42 9 110
12 44 24 96 27 115 2 19 10 58 16 85 7 28 12 61 13 75 1 34 15 122 22 140 3 8
7 33 8 55 1 22 7 83 13 136 11 94 9 399 -2 418 -4 5 -6 36 -5 68 2 75 -13 185
-36 263 -22 75 -36 133 -40 167 -2 18 -9 42 -16 54 -6 12 -13 40 -15 63 -9 79
-39 152 -160 389 -43 83 -90 156 -191 298 -24 32 -43 61 -43 64 0 5 158 -104
213 -149z m-122 -29 c32 -49 59 -90 59 -92 0 -2 10 -19 23 -37 12 -19 55 -99
94 -178 75 -149 111 -262 154 -477 9 -50 22 -100 27 -110 5 -10 15 -47 23 -83
18 -91 19 -667 1 -765 -73 -383 -108 -520 -147 -569 l-23 -29 -118 63 c-66 35
-139 75 -164 88 -25 14 -56 31 -68 38 -19 9 -21 14 -10 21 19 11 76 106 84
140 4 16 10 33 13 38 8 12 7 30 -2 70 -10 41 -52 64 -108 59 -24 -2 -65 -6
-92 -9 -54 -5 -55 -7 12 85 59 81 110 167 126 214 31 87 13 114 -62 98 -48
-11 -63 -9 -63 9 0 6 4 7 10 4 6 -3 7 1 4 9 -3 9 -1 16 6 16 6 0 8 5 5 10 -3
6 -1 10 5 10 6 0 9 4 6 9 -3 5 4 35 15 67 23 66 23 66 38 149 6 33 16 85 21
115 6 30 15 84 20 120 10 75 22 150 45 270 24 125 29 384 10 517 -22 156 -34
223 -45 244 -18 32 -10 35 16 4 14 -16 52 -70 85 -118z m-1307 -832 c23 -92
13 -273 -21 -357 -8 -21 -13 -41 -10 -44 12 -12 48 19 53 46 4 15 23 45 45 66
32 31 41 35 54 24 8 -7 15 -26 15 -42 0 -45 -47 -176 -86 -240 -36 -60 -38
-86 -4 -68 26 14 34 12 21 -4 -7 -8 -24 -17 -38 -21 -15 -3 -32 -13 -38 -22
-10 -14 -22 -10 -98 31 -96 52 -98 57 -69 128 10 24 29 95 41 158 21 108 41
191 77 318 17 58 47 73 58 27z m1080 -151 c22 -93 -63 -385 -154 -529 -27 -43
-25 -65 5 -65 14 0 25 4 25 9 0 5 6 11 14 14 9 4 2 -19 -20 -60 -19 -36 -34
-74 -34 -84 0 -9 -3 -19 -7 -21 -5 -1 -19 -25 -32 -53 -14 -27 -27 -52 -31
-55 -3 -3 -16 -19 -28 -36 -12 -17 -35 -37 -51 -44 -26 -10 -35 -8 -83 18 -29
16 -68 37 -86 46 l-33 17 22 37 c47 78 109 200 137 272 34 87 93 207 146 298
20 35 36 66 36 69 0 2 14 34 32 70 34 71 99 148 120 141 7 -3 17 -22 22 -44z
m-3440 -184 c-3 -135 -7 -162 -40 -293 -13 -54 -24 -113 -24 -132 0 -46 -14
-44 -33 3 -41 104 -28 281 32 427 16 39 35 95 42 125 l14 55 6 -35 c3 -19 4
-87 3 -150z m64 100 c69 -174 78 -301 31 -425 -26 -67 -96 -168 -113 -162 -15
5 -20 121 -6 147 25 48 52 258 51 409 -1 63 1 113 3 110 2 -2 17 -38 34 -79z
m2192 -430 c14 -10 67 -39 118 -65 50 -26 92 -53 92 -61 0 -16 -36 -80 -67
-117 -43 -52 -19 -81 27 -32 44 47 84 23 60 -35 -12 -29 -30 -47 -119 -119
-30 -24 -39 -37 -32 -44 8 -8 20 -4 41 12 17 12 43 23 58 24 25 2 27 -1 26
-36 -1 -39 -23 -65 -111 -129 -98 -72 -112 -84 -113 -95 0 -22 22 -14 69 25
25 21 71 57 102 80 89 65 128 174 69 189 -25 7 -25 15 1 39 27 24 49 67 49 95
0 26 -27 59 -47 59 -16 0 -16 -1 -2 39 9 27 15 32 34 27 22 -6 279 -139 343
-178 l32 -20 -27 -51 c-62 -116 -168 -186 -452 -301 -106 -43 -272 -81 -396
-91 -44 -4 -87 -9 -95 -10 -158 -33 -218 -47 -232 -55 -10 -6 -23 -10 -30 -10
-7 0 -40 -13 -73 -29 -65 -31 -166 -128 -200 -193 l-20 -38 -85 0 c-90 0 -98
3 -116 35 -17 31 -58 31 -82 1 -19 -25 -22 -26 -149 -26 l-129 0 4 146 c6 182
-2 220 -73 379 -19 42 -109 105 -151 105 -23 0 -91 43 -76 48 7 2 12 20 12 40
0 37 21 104 54 174 31 66 122 118 204 118 93 0 213 -92 272 -210 18 -36 43
-78 56 -93 13 -16 24 -33 24 -38 0 -12 88 -169 104 -185 6 -6 26 -28 44 -48
18 -20 37 -36 42 -36 5 0 11 -8 15 -19 4 -13 19 -20 57 -24 57 -7 70 -3 62 18
-4 8 -9 13 -13 10 -10 -6 -108 41 -129 62 -39 39 -71 86 -65 96 3 5 1 7 -4 4
-6 -4 -20 9 -32 29 -27 46 -27 48 12 27 51 -28 191 -24 293 9 171 56 409 212
514 338 45 55 69 98 104 183 l15 38 43 -22 c24 -12 54 -29 68 -39z m1273 28
c15 -46 -106 -252 -210 -357 -24 -24 -42 -49 -40 -55 6 -19 46 -18 80 2 19 12
61 22 103 26 66 6 72 5 98 -19 22 -20 27 -32 23 -53 -12 -61 -50 -142 -78
-170 l-31 -30 -66 36 c-37 19 -78 42 -92 51 -14 9 -42 25 -62 35 -21 11 -38
24 -38 30 0 6 -7 24 -15 40 -15 28 -14 31 9 55 14 15 38 53 54 86 94 192 132
274 132 283 0 14 29 30 77 41 52 12 51 12 56 -1z m-3934 -73 l25 -13 -35 -7
c-19 -4 -56 -22 -84 -40 -202 -132 -299 -169 -465 -179 l-85 -5 40 19 c22 11
46 20 53 20 6 0 12 4 12 8 0 5 12 14 26 21 15 6 52 31 83 55 67 52 133 86 221
114 106 34 155 36 209 7z m1 -68 c0 -8 -24 -40 -54 -73 -38 -42 -77 -72 -137
-104 l-84 -44 -127 -4 c-70 -2 -144 -1 -165 3 -35 7 -30 9 62 25 146 25 197
43 307 108 118 69 179 102 190 102 4 0 8 -6 8 -13z m3433 -304 c42 -25 82 -54
88 -64 5 -11 20 -19 34 -19 14 0 46 -11 73 -24 62 -31 215 -116 225 -125 8 -8
-114 -97 -194 -142 -26 -14 -68 -32 -93 -40 -25 -7 -46 -19 -46 -26 0 -18 27
-16 88 7 80 31 176 24 188 -12 3 -11 0 -40 -6 -64 -12 -42 -24 -55 -139 -154
-10 -8 -32 -28 -48 -43 -27 -25 -33 -27 -51 -16 -17 10 -24 10 -46 -5 -15 -9
-32 -13 -39 -9 -7 4 -88 8 -182 10 -210 2 -247 5 -263 20 -29 28 -63 27 -90
-2 -24 -27 -27 -27 -101 -21 -42 4 -79 13 -83 19 -6 9 -10 9 -17 -1 -7 -11
-54 -13 -234 -10 l-225 3 -22 28 c-27 34 -54 34 -87 1 l-27 -27 -164 6 c-90 3
-166 8 -169 11 -14 14 113 150 177 191 38 23 181 70 245 80 22 4 72 13 110 20
39 8 102 17 140 20 186 16 439 105 659 232 43 25 124 114 152 167 32 62 17 63
147 -11z m536 -292 c25 -15 100 -56 166 -91 66 -34 134 -72 150 -85 17 -12 59
-35 95 -52 36 -16 113 -57 171 -91 57 -33 133 -74 167 -92 35 -17 62 -38 62
-46 0 -14 -24 -15 -192 -9 -183 7 -193 8 -210 30 -9 12 -26 25 -37 28 -22 5
-81 -27 -81 -44 0 -9 -64 -11 -255 -6 l-255 5 -34 30 -34 30 59 57 c71 68 87
97 90 159 3 57 -14 77 -73 85 l-42 6 85 61 c92 68 94 68 168 25z m-3601 -330
c52 -26 69 -48 45 -55 -53 -15 -180 -28 -226 -23 -62 6 -195 48 -234 74 -27
18 -27 18 102 24 182 9 268 3 313 -20z m-278 -95 c64 -18 172 -21 254 -5 32 6
61 8 64 5 9 -10 -31 -42 -88 -71 -45 -23 -61 -26 -105 -20 -64 8 -161 53 -195
90 -22 25 -23 27 -5 22 11 -3 45 -13 75 -21z m1066 -63 c-20 -180 -19 -259 3
-349 13 -49 28 -98 35 -109 7 -11 18 -35 24 -54 19 -53 110 -177 196 -263 l78
-80 -6 -161 c-3 -89 -8 -295 -11 -457 -5 -274 -20 -768 -30 -1025 -2 -60 -7
-240 -10 -400 -7 -359 -14 -478 -29 -488 -8 -6 -8 -10 2 -14 6 -2 12 -18 12
-34 0 -17 -4 -28 -10 -24 -6 4 -8 -6 -6 -24 l3 -30 -51 5 c-28 3 -58 12 -67
20 -20 18 -27 18 -32 -3 -3 -12 -7 -7 -12 15 -6 24 -10 30 -16 20 -6 -9 -9 -4
-9 15 0 16 4 26 10 22 6 -3 7 1 4 10 -3 8 -3 27 1 42 5 21 8 24 16 12 5 -7 9
-24 9 -36 0 -13 4 -23 9 -23 4 0 8 13 7 29 -1 16 -4 27 -8 24 -18 -10 -6 51
17 93 24 43 24 45 6 63 -16 16 -26 18 -59 10 -22 -5 -60 -6 -84 -3 -24 3 -79
5 -124 4 -96 -1 -108 7 -102 75 2 25 1 45 -2 45 -11 -1 -43 -30 -33 -30 6 0 9
-9 6 -19 -3 -10 3 -31 13 -47 l18 -27 -26 5 c-22 4 -27 0 -35 -27 -10 -33 0
-80 16 -71 11 7 21 -27 21 -71 0 -18 5 -33 11 -33 5 0 7 -5 3 -11 -3 -6 -1
-15 6 -19 8 -5 9 -10 2 -14 -6 -3 -13 3 -17 14 -7 23 -14 24 -35 9 -13 -9 -13
-10 2 -6 16 6 48 -30 48 -53 0 -21 -30 -9 -31 13 -1 16 -2 18 -6 5 -3 -13 -15
-18 -43 -18 -28 0 -40 -5 -43 -17 -2 -10 -4 0 -5 22 0 59 -1 67 -11 61 -10 -7
-20 86 -21 206 0 52 4 89 11 93 6 4 9 36 8 78 -2 40 1 81 5 92 6 16 6 17 -3 5
-8 -12 -11 -4 -11 33 0 31 4 47 13 47 9 0 9 2 0 8 -9 6 -12 45 -10 142 1 73 5
120 8 104 3 -16 6 8 5 53 0 48 -4 79 -10 76 -5 -3 -6 -1 -3 4 4 6 9 131 11
279 3 148 7 364 10 479 3 116 10 381 16 590 9 359 18 607 25 679 2 17 7 124
11 236 5 129 11 188 15 160 5 -40 6 -36 7 28 l2 72 146 0 147 0 -7 -57z m321
29 c8 -9 17 -26 21 -37 7 -19 -4 -775 -12 -782 -5 -6 -73 60 -99 95 -12 17
-43 57 -68 89 -69 87 -135 242 -146 343 -5 51 11 273 23 309 7 22 262 7 281
-17z m275 6 c1 -7 2 -24 2 -37 1 -35 26 -39 26 -4 0 52 2 53 188 46 222 -8
211 3 210 -206 -2 -142 -4 -153 -32 -148 -22 5 -56 -10 -56 -24 0 -11 11 -15
40 -15 25 0 40 -5 40 -12 2 -42 -3 -628 -5 -650 -1 -16 -3 -43 -4 -62 -1 -33
-2 -34 -28 -26 -16 5 -53 16 -83 24 -62 16 -153 47 -223 75 -15 6 -35 11 -43
11 -8 0 -37 11 -66 25 -28 14 -57 25 -63 25 -6 0 -35 22 -64 49 l-52 48 7 274
c4 151 6 345 5 433 -1 106 2 163 10 172 15 19 188 20 191 2z m968 -13 c47 -2
111 -4 143 -4 37 -1 56 -5 52 -11 -4 -6 6 -23 22 -38 26 -24 28 -33 26 -87 -1
-33 -2 -122 -2 -197 l-1 -138 -35 0 c-32 0 -35 -2 -25 -19 5 -11 20 -21 32
-23 18 -2 24 -11 26 -37 l3 -34 -83 6 c-46 3 -96 10 -112 17 -32 12 -69 4 -63
-13 2 -6 21 -16 43 -22 48 -12 66 -23 59 -36 -26 -41 -293 74 -410 176 -22 19
-46 35 -54 35 -8 0 -39 15 -68 32 l-54 33 3 171 c2 130 6 175 17 188 15 18 70
18 481 1z m669 -15 c100 0 113 -2 101 -14 -33 -31 -139 -86 -225 -117 -96 -34
-60 -59 40 -26 69 22 96 18 103 -16 3 -16 -65 -67 -89 -67 -6 0 -25 -6 -42
-14 -18 -7 -44 -18 -59 -24 -14 -6 -65 -14 -112 -18 -48 -4 -89 -10 -91 -14
-2 -4 1 -14 8 -24 10 -13 18 -14 47 -6 80 23 180 2 180 -39 0 -47 -113 -104
-199 -99 l-56 3 3 214 2 214 33 30 32 29 104 -6 c57 -3 156 -6 220 -6z m211
-15 c0 -8 9 -23 21 -34 20 -18 20 -26 18 -392 -2 -392 -3 -481 -10 -901 -3
-198 -7 -258 -16 -258 -7 0 -13 5 -13 10 0 6 -7 10 -14 10 -8 0 -64 25 -125
55 -61 30 -113 55 -116 55 -17 0 -316 158 -354 187 -7 5 -2 664 5 674 3 5 16
9 29 9 27 0 45 25 45 62 0 19 6 23 33 25 63 3 187 86 187 126 0 30 -19 57 -48
69 l-27 10 25 10 c14 5 36 12 49 14 36 7 128 54 147 75 19 21 13 58 -13 85
-11 11 -14 19 -7 21 6 2 42 26 80 52 71 51 104 62 104 36z m668 -24 l32 -28 0
-314 c-1 -173 -3 -334 -5 -359 -2 -25 -6 -272 -9 -550 -3 -278 -8 -584 -11
-680 -3 -96 -8 -344 -12 -550 -3 -206 -7 -393 -9 -415 -1 -22 -5 -87 -9 -145
-8 -116 -8 -123 -1 -162 3 -21 0 -28 -12 -29 -11 0 -12 -2 -4 -6 20 -8 14 -23
-10 -23 -12 0 -30 7 -40 17 -12 11 -18 12 -18 4 0 -24 43 -49 66 -41 18 7 21
6 17 -11 -3 -10 -9 -19 -13 -19 -4 0 -11 -8 -14 -17 -3 -10 -13 -29 -21 -43
-15 -24 -15 -24 -9 17 l6 42 -40 7 c-22 3 -43 13 -46 20 -4 10 -22 13 -63 12
-57 -2 -57 -2 -10 -5 33 -3 47 -8 47 -19 0 -10 12 -14 40 -14 33 0 40 -3 40
-20 0 -11 -6 -29 -12 -40 -11 -17 -10 -22 2 -30 12 -8 11 -10 -8 -10 -12 0
-31 5 -41 12 -21 13 -56 4 -46 -12 3 -5 -3 -10 -14 -10 -12 0 -21 7 -21 15 0
8 -16 18 -36 24 -29 8 -39 7 -51 -5 -20 -20 -7 -32 17 -16 26 16 30 15 30 -4
0 -10 -6 -14 -14 -11 -8 3 -20 -1 -27 -9 -11 -14 -8 -15 22 -12 18 1 37 8 41
13 5 6 8 6 8 -2 0 -24 -33 -45 -62 -39 -21 4 -28 2 -28 -9 0 -8 5 -15 10 -15
6 0 10 -4 10 -10 0 -18 -28 -11 -35 9 -4 15 -17 19 -68 20 -34 1 -69 2 -77 3
-8 1 -24 0 -35 -1 -15 -1 -17 -3 -6 -10 9 -6 4 -10 -18 -13 -17 -2 -31 -1 -31
4 0 4 5 8 11 8 5 0 7 5 4 10 -5 8 -11 7 -21 -1 -11 -9 -14 -8 -14 5 0 16 10
20 40 17 13 -2 13 -1 0 9 -12 8 -12 12 -2 18 9 6 7 13 -10 28 -18 15 -20 15
-9 1 11 -13 11 -20 1 -32 -7 -8 -16 -12 -22 -9 -5 3 -4 12 3 20 7 9 8 14 1 14
-5 0 -12 23 -14 50 -1 28 0 50 5 50 4 0 7 16 7 35 0 19 -3 35 -7 35 -5 0 -7
21 -6 48 3 110 13 891 14 1175 1 295 2 310 21 329 21 21 19 58 -6 88 -13 16
-13 23 -2 570 4 184 9 472 12 640 6 368 6 365 29 390 17 19 30 20 275 20 l256
0 32 -29z m576 3 c18 -7 19 -26 12 -638 -4 -347 -9 -673 -11 -724 -2 -51 -7
-269 -10 -484 -4 -325 -8 -395 -20 -414 -12 -19 -12 -22 -1 -18 11 4 13 -12
10 -88 -2 -51 -5 -147 -5 -213 -1 -75 -5 -125 -12 -134 -9 -11 -9 -15 1 -18
13 -5 17 -33 4 -33 -12 0 -14 -108 -2 -115 5 -3 10 -11 10 -16 0 -6 -4 -7 -10
-4 -5 3 -10 0 -11 -7 0 -7 -2 -23 -3 -35 -1 -12 1 -20 5 -17 4 2 7 -8 7 -23 0
-16 1 -32 2 -38 7 -30 -2 -57 -20 -62 -28 -7 -21 -38 8 -37 12 0 22 -3 22 -7
0 -14 -24 -23 -50 -20 l-25 3 28 -22 c16 -12 27 -31 27 -45 0 -13 6 -26 13
-29 6 -3 2 -3 -10 -1 -26 7 -38 -9 -35 -47 2 -30 -15 -37 -36 -16 -9 9 -15 9
-24 0 -9 -9 -7 -12 10 -12 18 0 22 -6 22 -34 0 -19 4 -37 9 -40 4 -3 6 6 3 19
-2 15 0 25 7 25 6 0 11 -9 11 -20 0 -11 6 -20 13 -20 6 0 -1 -7 -17 -15 -30
-16 -45 -8 -46 23 0 14 -16 16 -24 3 -3 -5 1 -12 10 -15 12 -4 15 -14 11 -34
-2 -15 -1 -36 3 -47 8 -19 9 -19 9 2 1 14 6 21 14 17 8 -3 18 5 25 18 11 23
11 23 11 -4 1 -16 -3 -28 -8 -28 -5 0 -7 -8 -4 -19 3 -10 -1 -22 -8 -27 -9 -5
-11 -2 -6 9 3 10 2 17 -3 17 -6 0 -10 -4 -10 -10 0 -5 -7 -10 -15 -10 -8 0
-15 7 -15 15 0 19 -19 19 -26 0 -8 -20 -44 -20 -44 0 0 8 3 14 8 14 19 -3 33
2 27 10 -3 6 -17 6 -35 -1 -17 -5 -28 -14 -25 -18 9 -15 -69 -18 -81 -4 -6 8
-23 14 -36 14 -60 0 -88 12 -88 37 0 15 8 27 23 33 21 8 21 9 -5 9 -25 1 -27
-3 -30 -41 -2 -36 -7 -44 -25 -46 -13 -2 -23 -10 -23 -18 0 -17 -16 -19 -18
-1 0 6 -2 21 -4 32 -2 15 3 21 25 23 33 4 36 19 5 24 -19 2 -22 8 -20 32 3 18
0 26 -7 22 -6 -4 -11 -17 -12 -29 0 -12 -3 -16 -6 -9 -2 6 -9 10 -14 6 -5 -3
-9 0 -9 5 0 6 5 11 10 11 6 0 10 11 10 24 0 13 7 29 15 36 8 7 12 17 8 23 -4
6 -14 1 -26 -14 l-20 -24 8 23 c4 13 16 33 26 43 21 21 25 39 9 39 -5 0 -10
-9 -10 -21 0 -25 -23 -20 -28 6 -3 10 0 15 7 11 6 -4 11 -2 11 3 0 6 -4 11
-10 11 -13 0 -13 37 0 45 8 5 7 11 0 21 -7 7 -10 36 -9 66 2 29 0 59 -5 66 -5
9 -1 19 10 28 11 9 14 13 7 10 -7 -4 -11 6 -11 29 0 19 4 35 10 35 5 0 6 6 1
13 -12 19 -13 227 -1 227 7 0 7 4 0 13 -13 16 -11 404 2 426 5 7 5 16 0 20
-11 7 -13 231 -2 225 4 -3 8 2 8 10 0 8 -5 18 -10 21 -6 4 -8 10 -5 14 2 5 7
215 10 467 6 518 11 822 21 1099 4 105 6 197 6 205 -1 44 19 175 30 187 10 13
47 15 238 10 124 -3 233 -8 244 -13z m-4302 -309 c65 -81 88 -145 88 -248 0
-78 -31 -240 -50 -260 -4 -5 -11 9 -15 30 -10 46 -9 44 -28 118 -9 33 -25 92
-36 130 -39 132 -51 196 -46 248 2 29 4 61 5 72 0 18 2 17 17 -5 10 -14 39
-52 65 -85z m-100 -160 c9 -33 30 -109 48 -170 18 -60 35 -125 37 -143 4 -31
3 -33 -15 -23 -46 25 -121 154 -148 256 -22 81 -17 137 19 225 l32 81 6 -83
c3 -46 13 -110 21 -143z m1848 80 c34 -19 66 -35 70 -35 13 0 19 -27 9 -37 -6
-6 -5 -30 2 -64 12 -60 75 -235 93 -259 7 -8 25 -40 41 -70 63 -122 199 -253
391 -375 l57 -37 -6 -291 c-4 -161 -7 -323 -7 -360 0 -43 -4 -66 -10 -62 -18
11 -23 -24 -7 -58 11 -25 13 -58 8 -162 l-6 -129 -35 44 c-19 25 -42 53 -52
64 -9 10 -22 31 -28 47 -7 16 -17 29 -22 29 -6 0 -7 7 -4 16 3 8 2 12 -4 9 -5
-3 -16 7 -24 23 -8 16 -32 56 -54 88 -21 32 -42 66 -46 74 -3 8 -22 40 -41 70
-40 65 -115 212 -115 225 0 15 -50 145 -75 195 -12 25 -36 81 -52 125 -63 168
-61 159 -62 248 -1 33 -6 49 -16 54 -24 9 -29 -3 -27 -62 1 -30 0 -55 -3 -55
-3 0 -17 7 -30 16 l-25 16 0 328 c0 282 5 420 15 420 2 0 31 -16 65 -35z
m-2125 -19 c-27 -64 -37 -131 -36 -244 1 -92 6 -126 27 -188 14 -42 27 -92 30
-112 2 -19 10 -42 16 -50 7 -8 13 -19 14 -26 5 -21 74 -207 88 -234 7 -15 19
-58 26 -97 7 -38 18 -96 25 -128 20 -91 12 -226 -19 -352 -38 -152 -78 -269
-97 -285 -3 -3 -12 -20 -20 -37 -8 -18 -17 -33 -21 -33 -3 0 -14 -20 -23 -45
-10 -24 -21 -42 -26 -39 -5 3 -9 -4 -9 -16 0 -12 -4 -19 -9 -16 -5 3 -12 -5
-15 -18 -3 -13 -12 -23 -20 -22 -8 0 -15 -3 -15 -7 0 -14 -31 -38 -41 -32 -5
3 -7 0 -4 -8 3 -8 -12 -28 -38 -49 -24 -20 -57 -49 -75 -64 -66 -59 -126 -109
-142 -118 -21 -12 -245 -159 -251 -166 -18 -19 -140 -82 -140 -73 0 5 -5 0
-11 -9 -5 -10 -15 -18 -21 -18 -6 0 -19 -6 -27 -14 -29 -26 -173 -96 -183 -89
-6 3 -8 2 -5 -4 3 -5 -13 -18 -36 -28 -23 -10 -59 -29 -80 -42 -22 -14 -46
-22 -55 -18 -9 3 -13 3 -9 -1 8 -8 -57 -44 -80 -44 -7 0 -13 -4 -13 -10 0 -5
-12 -13 -27 -16 -16 -4 -34 -11 -40 -16 -7 -6 -21 -7 -30 -4 -10 4 -14 4 -10
0 10 -10 -152 -75 -194 -77 -21 -1 -35 -5 -33 -8 4 -7 -21 -21 -41 -24 -5 -1
-35 -14 -65 -28 -30 -14 -79 -35 -107 -46 -48 -19 -52 -19 -44 -3 21 42 41 94
41 107 0 8 5 15 11 15 5 0 8 3 5 8 -2 4 0 30 5 57 26 136 46 267 50 330 8 140
4 384 -10 542 -10 114 -12 223 -8 365 7 217 10 246 32 293 8 16 19 50 25 75 7
24 23 67 37 95 32 63 123 195 134 195 5 0 9 5 9 12 0 43 263 292 360 341 19 9
49 25 65 35 17 10 46 24 65 32 19 8 46 22 60 31 20 14 145 64 195 79 6 1 20 6
33 11 13 5 29 9 36 9 6 0 16 4 22 8 5 5 36 19 69 31 33 12 74 29 90 36 17 8
82 34 145 58 130 50 252 112 355 181 39 25 71 46 72 46 1 0 -4 -15 -12 -34z
m2276 -83 c16 -14 54 -35 132 -75 59 -30 158 -58 205 -58 37 0 45 4 60 30 10
17 23 28 30 25 8 -3 31 -5 52 -5 l39 0 -6 -317 c-3 -175 -7 -319 -8 -321 -4
-5 -118 65 -147 90 -15 13 -54 45 -88 72 -133 106 -229 259 -289 458 -39 127
-34 148 20 101z m-756 -469 c39 -14 75 -27 80 -28 21 -4 120 -39 130 -45 11
-8 101 -36 150 -47 17 -4 32 -8 35 -9 3 -1 20 -5 38 -9 23 -5 34 -15 39 -34 7
-30 -4 -762 -17 -1087 -5 -126 -10 -315 -10 -420 -1 -104 -5 -212 -9 -238 -4
-26 -4 -50 1 -53 4 -3 8 -10 8 -15 0 -6 -3 -8 -8 -6 -4 3 -6 -64 -5 -149 1
-85 -1 -154 -6 -154 -4 0 -8 -13 -8 -30 0 -16 5 -27 10 -23 5 3 4 -3 -1 -14
-6 -11 -9 -39 -7 -62 3 -23 0 -39 -4 -36 -5 3 -7 -4 -4 -15 3 -11 2 -28 -2
-37 -5 -10 -7 -25 -6 -33 2 -12 -2 -11 -18 4 -18 16 -32 18 -116 12 -61 -3
-94 -2 -90 4 3 6 1 10 -4 10 -6 0 -11 -6 -12 -12 0 -10 -2 -10 -5 -1 -3 7 -11
10 -18 7 -8 -3 -16 2 -20 12 -6 16 -8 16 -25 0 -14 -12 -33 -17 -63 -15 -24 2
-49 -1 -56 -5 -15 -9 -15 -1 -2 25 8 15 7 19 -5 19 -8 0 -15 -3 -15 -7 0 -5
-5 -15 -10 -23 -8 -13 -11 -12 -24 5 -8 11 -18 16 -22 12 -5 -4 -2 -12 6 -18
10 -7 -2 -9 -42 -6 -31 1 -60 6 -64 10 -4 4 0 7 9 7 24 0 21 14 -5 29 -16 8
-24 22 -25 44 -1 27 0 29 8 12 6 -13 7 3 3 47 -6 75 4 181 16 173 5 -3 4 9 -2
27 -14 43 -17 189 -6 353 5 72 10 162 12 200 2 39 6 126 11 195 4 79 3 139 -3
163 -6 22 -7 39 -1 43 5 3 5 13 -1 24 -7 13 -9 93 -6 222 3 112 8 322 11 468
4 146 10 303 16 350 5 47 9 110 9 140 0 30 3 65 6 77 6 22 6 22 43 -7 20 -16
68 -41 106 -56z m565 -213 c0 -5 13 -22 29 -37 16 -16 36 -49 44 -74 8 -25 32
-81 52 -125 20 -44 54 -133 75 -197 35 -104 51 -140 97 -213 7 -11 20 -33 28
-50 9 -16 21 -39 28 -50 7 -11 38 -63 70 -115 96 -158 123 -200 146 -224 11
-12 21 -25 21 -28 0 -3 18 -24 40 -46 l40 -40 0 -143 c0 -212 -12 -459 -22
-453 -4 3 -8 0 -8 -5 0 -6 5 -11 10 -11 15 0 13 -127 -2 -133 -10 -4 -10 -8 1
-15 7 -5 11 -15 7 -20 -4 -6 -7 -50 -7 -97 0 -47 -5 -85 -10 -85 -5 0 -9 5 -9
12 0 6 -2 9 -5 7 -2 -3 -2 -15 2 -28 4 -16 8 -19 13 -10 5 7 8 -4 7 -24 -1
-22 -4 -32 -9 -24 -4 7 -8 -7 -9 -33 0 -32 -3 -39 -8 -25 -8 19 -8 19 -18 0
-9 -15 -14 -17 -26 -7 -12 10 -16 9 -21 -3 -4 -12 1 -15 29 -13 19 1 37 -1 41
-5 4 -4 -9 -7 -30 -7 -21 0 -47 -5 -58 -11 -18 -10 -20 -9 -15 5 5 13 -1 16
-26 17 -18 1 -35 1 -39 0 -5 0 -8 3 -8 8 0 5 -14 11 -31 13 -25 4 -30 2 -26
-13 3 -12 -3 -19 -22 -22 -14 -3 -30 -1 -36 4 -5 6 -5 9 3 9 18 0 15 69 -3 76
-17 7 -78 -34 -70 -47 9 -14 25 -11 25 6 0 8 7 15 15 15 23 0 18 -29 -7 -41
l-23 -10 23 5 c12 2 22 0 22 -6 0 -6 -24 -8 -57 -6 -39 3 -57 8 -55 16 1 7 -8
12 -20 12 -19 0 -20 -2 -8 -10 13 -9 13 -11 0 -20 -11 -7 -17 -4 -23 15 -9 25
-27 35 -27 15 0 -5 5 -10 10 -10 6 0 10 -5 10 -11 0 -8 -22 -10 -72 -7 -59 5
-75 3 -86 -11 -7 -9 -11 -10 -7 -3 4 7 0 12 -10 12 -9 0 -13 -5 -10 -10 3 -6
1 -10 -4 -10 -6 0 -11 2 -11 4 0 2 -3 12 -7 22 -4 11 -2 15 4 11 7 -4 8 4 4
25 -4 17 -4 57 -1 89 3 32 2 55 -2 53 -4 -3 -8 22 -8 55 0 34 4 61 10 61 14 0
12 64 -2 78 -10 10 -10 15 1 21 7 5 10 14 7 20 -7 11 -8 93 -2 1116 4 869 2
818 26 805 11 -6 20 -15 20 -19z m830 -170 c41 -24 86 -51 100 -59 14 -9 33
-17 43 -17 11 -1 22 -6 25 -11 4 -5 18 -14 32 -20 112 -51 226 -109 228 -116
2 -4 10 -8 18 -8 8 0 34 -10 57 -22 30 -16 37 -23 24 -26 -9 -2 -15 -8 -12
-13 4 -5 2 -9 -4 -9 -6 0 -8 -7 -5 -15 7 -18 -5 -19 -134 -4 -53 6 -110 18
-125 26 -16 8 -35 12 -43 9 -22 -8 0 -44 31 -52 14 -3 25 -10 25 -15 0 -5 3
-8 8 -7 4 1 27 -11 51 -27 24 -17 53 -35 64 -42 11 -6 35 -26 54 -43 31 -30
33 -33 16 -46 -23 -17 -72 -10 -183 24 -53 17 -92 35 -103 50 -10 12 -27 22
-37 22 -22 0 -34 -39 -14 -47 8 -3 11 -10 7 -16 -3 -6 -1 -7 5 -3 14 9 63 -39
81 -79 7 -16 20 -43 28 -58 10 -18 12 -32 6 -38 -14 -14 -111 10 -156 38 -21
13 -41 22 -44 19 -8 -8 6 -41 26 -63 11 -11 33 -46 50 -77 58 -109 12 -113
-139 -14 -31 20 -61 43 -68 51 -16 19 -13 756 3 753 5 -1 44 -21 85 -45z m536
-573 c-3 -123 -9 -412 -12 -643 -5 -288 -10 -422 -18 -427 -7 -5 -7 -8 3 -8
10 0 12 -9 7 -33 -3 -17 -6 -38 -6 -44 0 -7 1 -21 1 -30 0 -10 -2 -96 -6 -191
-5 -145 -8 -176 -23 -191 -26 -27 -51 -34 -47 -13 2 12 -3 18 -16 18 -10 0
-19 -4 -19 -8 0 -12 -70 -6 -71 6 -2 21 3 41 15 56 16 19 21 94 6 85 -12 -7
-40 12 -40 26 0 5 11 11 25 15 25 6 35 24 14 24 -5 0 -9 8 -8 18 4 40 -1 45
-22 21 -13 -15 -18 -31 -14 -46 3 -13 1 -23 -4 -23 -10 0 -9 -160 2 -177 6
-10 -4 -13 -42 -13 -34 0 -51 4 -52 13 0 9 -2 9 -6 0 -6 -16 -99 -18 -108 -3
-3 6 -16 10 -28 9 -21 0 -21 -1 3 -11 21 -9 22 -12 7 -15 -25 -6 -50 5 -41 18
4 8 -3 9 -27 4 -50 -12 -84 -11 -85 0 -2 23 -17 45 -30 45 -8 0 -14 7 -14 15
0 8 5 15 10 15 7 0 7 6 1 18 -7 13 -7 22 1 30 8 8 8 15 0 25 -16 19 -12 137 5
137 11 0 11 4 1 23 -7 12 -11 26 -9 32 6 21 13 162 10 200 -4 62 -3 485 2 490
8 8 49 -7 43 -16 -12 -21 10 -7 41 26 36 36 36 44 7 115 -5 14 -18 54 -28 90
-10 36 -24 74 -31 85 -19 29 -16 37 10 23 12 -7 25 -11 29 -10 4 1 12 -7 18
-18 6 -11 19 -20 30 -20 10 0 22 -5 25 -10 8 -13 60 -35 102 -43 24 -5 31 -3
27 7 -3 7 0 25 6 40 8 21 6 35 -9 64 -10 20 -19 41 -19 45 0 5 -9 15 -19 23
-17 12 -16 13 7 8 116 -26 160 -23 160 13 0 7 -15 45 -34 83 -34 68 -37 91 -8
67 8 -6 16 -11 16 -9 1 2 14 -2 30 -8 45 -17 138 -23 168 -11 57 22 38 103
-34 145 -18 11 -41 27 -50 36 -17 15 -12 16 62 15 44 -1 77 2 74 6 -3 5 0 9 7
9 8 0 10 -55 5 -222z"/>
<path d="M1485 7679 c-99 -8 -129 -15 -195 -49 -68 -35 -115 -89 -130 -149
-13 -57 -8 -175 11 -243 17 -59 27 -70 50 -57 23 12 24 23 4 42 -8 8 -19 35
-25 60 -10 38 -8 56 10 126 21 76 26 84 84 138 109 102 212 117 461 68 85 -17
115 -17 140 -1 15 10 25 22 23 27 -2 6 -54 12 -118 14 -69 2 -134 9 -164 19
-27 9 -52 15 -55 14 -3 0 -46 -4 -96 -9z"/>
<path d="M2130 7635 c-30 -19 -59 -38 -65 -42 -5 -5 -23 -14 -39 -21 -16 -7
-52 -28 -80 -46 -154 -99 -326 -196 -348 -196 -4 0 -16 -8 -26 -17 -10 -10
-27 -23 -38 -29 -15 -10 -16 -15 -7 -25 10 -10 18 -10 38 -1 22 10 27 9 39
-11 8 -12 24 -62 37 -112 12 -49 28 -104 35 -121 8 -17 21 -61 29 -97 21 -92
25 -98 49 -95 27 4 60 62 90 163 36 115 34 206 -4 230 -6 3 -38 -21 -71 -55
-34 -33 -66 -59 -72 -57 -6 2 -17 23 -25 48 -8 24 -23 65 -33 91 l-18 48 24
17 c114 85 401 255 423 251 12 -2 22 -27 38 -93 11 -50 31 -121 43 -158 13
-38 21 -70 19 -72 -2 -2 -17 2 -32 10 -16 8 -44 15 -63 15 -43 0 -89 -47 -98
-99 -8 -53 9 -142 31 -158 45 -33 128 5 122 55 -4 38 -48 60 -88 45 l-30 -11
0 43 c0 54 30 95 70 95 60 0 101 -43 125 -127 4 -13 13 -23 22 -23 19 0 16 16
-27 165 -43 150 -71 253 -80 297 -6 32 -4 37 17 47 13 6 35 8 49 5 24 -6 25
-5 22 31 -2 21 -7 40 -13 41 -5 2 -35 -12 -65 -31z m-301 -557 c-1 -48 -48
-190 -64 -195 -11 -3 -55 119 -55 148 1 12 94 86 113 88 4 1 7 -18 6 -41z"/>
<path d="M1310 7180 c-47 -32 -108 -75 -137 -94 l-52 -35 23 -53 c28 -64 53
-136 64 -186 l9 -37 -47 -1 -47 0 -27 82 c-34 106 -50 125 -106 131 -43 4 -47
2 -89 -40 -35 -37 -43 -52 -43 -82 0 -86 78 -98 103 -15 9 31 9 46 0 66 -13
30 -7 44 20 44 52 0 109 -133 109 -257 0 -120 -45 -179 -124 -159 -29 7 -134
89 -171 134 -16 20 -40 47 -52 61 -13 13 -23 37 -23 52 0 26 -3 29 -33 29 -36
0 -74 -30 -63 -49 4 -6 22 -13 40 -17 25 -4 48 -22 87 -68 88 -101 205 -186
258 -186 46 0 111 105 111 179 0 16 8 39 18 51 22 28 64 19 92 -19 33 -44 84
-101 91 -101 17 0 17 33 0 62 -11 18 -29 67 -41 108 -12 41 -33 108 -46 149
-39 119 -36 130 47 195 39 31 77 56 85 56 7 0 16 -16 19 -37 4 -21 16 -81 27
-133 11 -52 24 -133 30 -180 14 -123 24 -135 71 -96 l28 23 -26 99 c-15 54
-33 131 -40 169 -19 98 -42 191 -50 204 -11 19 -29 12 -115 -49z"/>
<path d="M6505 7411 c-45 -20 -142 -118 -171 -171 -25 -47 -26 -170 -1 -198 9
-10 17 -23 17 -29 0 -17 71 -70 131 -98 103 -48 216 -28 295 52 54 54 66 94
62 203 -4 79 -9 104 -32 150 -35 69 -61 89 -134 100 -83 14 -122 12 -167 -9z
m222 -42 c37 -23 52 -47 78 -132 21 -72 17 -138 -14 -198 -31 -60 -48 -77
-101 -102 -106 -51 -246 -6 -321 103 -31 45 -33 136 -5 193 17 35 88 111 120
129 14 8 125 24 180 27 16 0 44 -8 63 -20z"/>
<path d="M3646 4775 c-31 -31 -55 -62 -53 -68 5 -15 108 -13 136 3 26 13 36
51 24 87 -16 46 -43 40 -107 -22z"/>
<path d="M2176 2694 c-83 -20 -147 -70 -169 -131 -24 -66 -23 -110 3 -118 21
-7 40 0 40 14 0 10 61 114 80 136 27 33 153 75 165 56 3 -6 13 -11 21 -11 29
0 105 -41 98 -52 -4 -7 -3 -8 4 -4 7 4 36 -17 68 -48 76 -73 128 -97 212 -97
96 0 130 42 43 54 -53 7 -148 65 -208 128 -36 37 -61 53 -103 66 -74 22 -183
25 -254 7z"/>
<path d="M1742 2398 c-7 -7 -12 -21 -12 -32 0 -11 -5 -33 -10 -50 -6 -17 -21
-65 -34 -106 l-24 -75 -23 50 c-23 49 -69 115 -69 101 0 -4 -13 6 -30 22 -79
79 -241 65 -347 -30 -12 -12 -27 -17 -34 -13 -7 5 -10 4 -6 -2 4 -6 -11 -26
-33 -46 -23 -20 -40 -45 -40 -57 0 -12 5 -18 10 -15 6 3 10 2 10 -3 0 -6 7
-13 16 -16 10 -4 27 7 47 29 31 34 33 35 37 13 5 -31 4 -198 -1 -223 -3 -11
-8 -26 -12 -32 -12 -18 1 -33 26 -33 15 0 27 9 35 28 39 89 103 165 150 178
12 3 22 10 22 14 0 14 93 31 134 24 68 -11 77 -27 61 -118 -8 -43 -21 -88 -29
-101 -20 -31 -20 -51 0 -59 40 -15 74 33 74 105 0 23 11 73 24 112 13 40 36
115 51 167 15 52 31 100 36 106 12 15 68 24 75 12 3 -5 9 -6 14 -3 19 12 19
-16 -1 -71 -11 -33 -35 -117 -54 -189 -32 -123 -55 -201 -69 -235 -3 -8 -2
-21 3 -29 13 -20 51 4 51 32 0 12 7 47 16 77 8 30 24 91 35 135 11 44 34 124
51 177 29 95 30 97 55 87 13 -5 28 -7 33 -4 20 12 20 -19 1 -75 -12 -33 -21
-68 -21 -78 0 -23 -69 -289 -85 -328 -16 -39 -5 -65 19 -45 21 18 65 162 95
316 7 33 21 90 32 127 17 57 24 68 49 77 19 6 30 17 30 29 0 16 -9 21 -52 25
-29 3 -89 10 -133 16 -151 20 -162 20 -173 9z m-245 -120 c106 -77 108 -94 11
-100 -93 -6 -168 -46 -218 -115 l-35 -48 -6 91 c-4 50 -10 105 -13 121 -6 24
-2 32 22 50 34 25 73 37 137 41 39 2 52 -3 102 -40z"/>
<path d="M2133 2330 c-29 -12 -74 -84 -80 -129 -4 -30 0 -40 22 -61 23 -22 36
-25 94 -25 l68 0 -29 -35 c-16 -19 -54 -64 -83 -100 -29 -36 -62 -74 -74 -84
-11 -11 -21 -25 -21 -33 0 -25 42 -13 88 26 55 46 121 67 177 57 30 -6 35 -10
24 -18 -10 -7 -7 -8 12 -4 20 4 32 -1 54 -24 24 -25 29 -39 31 -87 3 -81 3
-83 14 -83 18 0 40 58 40 105 0 25 14 99 31 163 17 64 35 131 39 147 12 46 28
82 39 89 5 3 41 1 80 -6 62 -11 72 -10 89 5 13 12 17 26 14 47 -6 40 -12 43
-58 26 -22 -7 -64 -12 -94 -11 -74 3 -89 -6 -89 -53 1 -20 -7 -57 -16 -82 -9
-25 -22 -74 -30 -110 -8 -36 -18 -78 -24 -93 l-11 -27 -37 24 c-61 38 -104 48
-165 37 -29 -5 -54 -8 -55 -7 -2 1 21 27 50 57 55 59 96 123 84 136 -4 4 -23
1 -42 -5 -53 -20 -129 -26 -153 -13 -35 19 -26 26 33 28 62 1 82 13 101 60 17
39 10 59 -27 78 -31 17 -63 18 -96 5z"/>
<path d="M7892 703 c-17 -3 -21 -9 -17 -24 9 -28 -2 -41 -26 -29 -16 9 -19 7
-19 -10 0 -23 42 -44 72 -37 13 4 18 -1 18 -13 0 -16 -7 -18 -52 -15 -28 2
-54 9 -58 15 -5 8 -17 8 -41 2 -19 -6 -28 -11 -21 -11 20 -2 13 -21 -8 -21
-11 0 -20 -5 -20 -10 0 -12 48 -3 67 12 15 12 33 2 33 -18 0 -12 -7 -14 -32
-9 l-33 7 34 -31 c42 -38 53 -39 45 -6 -5 19 -2 25 10 25 9 0 15 6 14 12 -2 7
8 14 21 16 21 3 23 1 19 -22 -4 -18 -1 -26 8 -26 8 0 14 11 15 28 0 15 3 21 6
15 2 -7 11 -13 19 -13 17 0 17 5 4 29 -16 31 -19 71 -8 97 10 20 9 27 -3 35
-8 5 -16 8 -19 7 -3 0 -15 -3 -28 -5z"/>
<path d="M486 245 c-4 -14 -14 -25 -23 -25 -13 0 -14 -3 -5 -12 15 -15 16 -38
1 -38 -7 0 -18 8 -25 18 -12 15 -14 14 -26 -16 -11 -28 -16 -32 -38 -27 -19 4
-21 3 -10 -5 12 -8 11 -10 -7 -10 -32 0 -29 -26 5 -35 25 -7 25 -8 7 -15 -35
-15 -122 -12 -128 4 -5 12 -13 11 -46 -6 -33 -16 -44 -18 -56 -8 -13 11 -15 7
-15 -28 l0 -41 430 -1 c355 0 430 2 430 13 0 7 11 24 25 37 27 26 20 40 -22
40 -13 0 -23 5 -23 10 0 6 -9 10 -20 10 -13 0 -20 -7 -20 -20 0 -14 7 -20 22
-20 12 0 19 -3 15 -6 -3 -3 -22 -6 -41 -6 -26 0 -36 -4 -36 -16 0 -28 -24 5
-26 36 -1 25 -4 27 -42 27 -44 0 -49 4 -31 22 13 13 4 63 -11 63 -6 0 -10 -4
-10 -10 0 -5 -9 -10 -20 -10 -12 0 -20 7 -20 16 0 9 -6 14 -12 12 -7 -3 -13
-10 -13 -16 0 -19 -14 -25 -31 -12 -12 11 -17 11 -23 1 -5 -7 -17 -12 -27 -10
-11 1 -37 -3 -59 -9 -49 -14 -58 -15 -50 -3 3 6 -3 15 -12 21 -14 9 -10 10 22
5 23 -3 47 0 55 6 12 9 12 10 -4 5 -23 -8 -86 3 -86 15 0 5 9 9 19 9 11 0 23
5 26 10 4 6 1 9 -7 8 -8 -2 -12 5 -11 20 4 30 -13 28 -21 -3z"/>
</g>
</svg>
